<svg xmlns="http://www.w3.org/2000/svg" viewBox="0 0 4.762 4.762" height="18" width="18"><g transform="translate(0 -292.238)"><rect ry=".265" y="293.296" x=".794" height="1.323" width="1.323" style="marker:none"/><rect style="marker:none" width="1.323" height="1.323" x="2.646" y="293.296" ry=".265"/><path d="M2.117 294.09v.793c0 .265-.265.794-.265.794s-.088.265-.352.265h-.265c-.264 0-.177-.265-.177-.265s.265-.53.265-.794v-.793zM3.969 294.09v.793c0 .265-.265.794-.265.794s-.088.265-.352.265h-.265c-.264 0-.177-.265-.177-.265s.265-.53.265-.794v-.793z" style="marker:none"/></g></svg>