<svg xmlns="http://www.w3.org/2000/svg" viewBox="0 0 4.762 4.762" height="18" width="18"><path d="M1.058.265a.265.265 0 00-.264.264v3.704c0 .146.118.265.264.265h1.588c1.058 0 1.323-.595 1.323-1.19 0-.406-.124-.81-.536-1.028.203-.224.271-.524.271-.825 0-.595-.264-1.19-1.323-1.19zm.264.529h1.059c.43 0 .581.102.664.195.082.093.131.248.131.467 0 .219-.049.373-.131.465-.082.092-.234.195-.664.195H1.322zm0 1.851h1.324c.43 0 .581.103.663.196.082.092.13.247.13.466 0 .22-.048.375-.13.467-.082.093-.233.196-.663.196H1.322z"/></svg>