<svg xmlns="http://www.w3.org/2000/svg" viewBox="0 0 4.762 4.762" height="18" width="18"><path d="M1.058.53a.265.265 0 00-.264.264v3.175a.265.265 0 00.264.264h1.588c1.058 0 1.323-.529 1.323-1.058 0-.35-.118-.699-.502-.896.174-.194.237-.442.237-.692C3.704 1.058 3.44.53 2.381.53H1.058zm.262.527h1.06c.442 0 .612.104.686.178.075.074.112.175.112.351 0 .177-.037.28-.112.354-.072.073-.24.172-.66.177H1.32v-1.06zM2.39 2.645h.257c.441 0 .61.103.684.176.073.074.11.177.11.353 0 .177-.037.28-.11.354-.073.073-.243.176-.684.176H1.322V2.646H2.39z"/></svg>