<svg xmlns="http://www.w3.org/2000/svg" height="18" width="18"><path d="M9.074 5.176a3.896 3.896 0 00-1.521.43c-1.239.619-2.26 1.687-3.26 2.687-1 1-2.068 2.021-2.688 3.26-.31.619-.503 1.328-.41 2.072.093.744.48 1.464 1.098 2.082.618.618 1.338 1.005 2.082 1.098.744.093 1.453-.1 2.072-.41 1.239-.62 2.26-1.688 3.26-2.688.467-.466.945-.94 1.389-1.436-.143.085-.276.181-.426.256-.679.34-1.49.568-2.356.46a3.367 3.367 0 01-.605-.137c-.787.762-1.547 1.451-2.156 1.755-.381.19-.672.247-.928.215s-.536-.145-.918-.527-.495-.662-.527-.918c-.032-.256.024-.547.215-.928.38-.761 1.312-1.74 2.312-2.74 1-1 1.979-1.932 2.74-2.312.381-.19.672-.247.928-.215s.536.145.918.527.495.662.527.918c.003.02-.005.043-.004.063.363-.331.734-.673 1.123-1.063.16-.16.283-.304.436-.46a4.23 4.23 0 00-.668-.872c-.618-.618-1.338-1.005-2.082-1.098a3.079 3.079 0 00-.55-.02z"/><path d="M13.074.861a3.896 3.896 0 00-1.521.43c-1.239.62-2.26 1.688-3.26 2.688-.467.466-.945.94-1.389 1.435.143-.085.276-.18.426-.256a4.396 4.396 0 011.717-.48c.208-.012.422-.006.639.021.204.026.406.074.605.137.787-.762 1.547-1.451 2.156-1.756.381-.19.672-.247.928-.215s.536.145.918.528c.382.382.495.662.527.918.032.255-.024.547-.215.927-.38.762-1.312 1.74-2.312 2.74-1 1-1.979 1.932-2.74 2.313-.381.19-.672.247-.928.215s-.536-.145-.918-.527c-.382-.383-.495-.66-.527-.916-.003-.02.005-.045.004-.065-.363.33-.734.673-1.123 1.063-.16.16-.283.303-.436.46.177.305.396.6.668.872.618.617 1.338 1.004 2.082 1.097.744.093 1.453-.1 2.072-.41 1.239-.62 2.26-1.687 3.26-2.687 1-1 2.068-2.022 2.688-3.26.31-.62.503-1.326.41-2.07-.093-.745-.48-1.467-1.098-2.084C15.089 1.36 14.369.974 13.625.88a3.079 3.079 0 00-.55-.02z"/></svg>