<svg height="18" width="18"><path d="M9.07 5.18a3.9 3.9 0 00-1.52.43C6.31 6.22 5.3 7.29 4.3 8.29c-1 1-2.07 2.02-2.68 3.26-.31.62-.5 1.33-.41 2.07.09.75.48 1.47 1.1 2.09.61.61 1.33 1 2.08 1.1.74.09 1.45-.1 2.07-.42 1.24-.61 2.26-1.68 3.26-2.68.46-.47.94-.94 1.39-1.44l-.43.26c-.68.34-1.49.56-2.36.46-.2-.03-.4-.08-.6-.14-.79.76-1.55 1.45-2.16 1.76-.38.19-.67.24-.92.21-.26-.03-.54-.14-.92-.53-.39-.38-.5-.66-.53-.91-.03-.26.02-.55.21-.93.39-.76 1.32-1.74 2.32-2.74 1-1 1.98-1.93 2.74-2.32.38-.19.67-.24.93-.21.25.03.53.14.91.53.39.38.5.66.53.92v.06l1.12-1.06.44-.47c-.18-.3-.4-.6-.67-.87-.62-.61-1.34-1-2.09-1.1a3.08 3.08 0 00-.55-.01z"/><path d="M13.07.86a3.9 3.9 0 00-1.52.43c-1.24.62-2.26 1.69-3.26 2.69-.46.47-.94.94-1.39 1.43.15-.08.28-.18.43-.25a4.4 4.4 0 012.36-.46c.2.02.4.07.6.14.79-.77 1.55-1.46 2.16-1.76.38-.19.67-.25.93-.21.25.03.53.14.91.52.39.38.5.66.53.92.03.26-.02.55-.21.93-.39.76-1.32 1.74-2.32 2.74-1 1-1.98 1.93-2.74 2.31-.38.2-.67.25-.93.22-.25-.04-.53-.15-.91-.53-.39-.38-.5-.66-.53-.92V9c-.36.33-.73.67-1.12 1.06l-.43.46c.17.3.4.6.66.87.62.62 1.34 1 2.08 1.1.75.1 1.46-.1 2.08-.41 1.24-.62 2.26-1.69 3.26-2.69s2.07-2.02 2.68-3.26c.31-.62.5-1.32.41-2.07a3.63 3.63 0 00-1.1-2.08c-.61-.62-1.33-1-2.07-1.1a3.08 3.08 0 00-.56-.02z"/></svg>