<svg xmlns="http://www.w3.org/2000/svg" viewBox="0 0 4.762 4.762" height="18" width="18"><g transform="translate(0 -292.238)"><path d="M.397 295.413a.132.132 0 100 .264h.331a.066.066 0 110 .132H.66a.132.132 0 100 .265h.067a.066.066 0 110 .132H.397a.132.132 0 100 .265H.66a.397.33 0 00.397-.331.397.33 0 00-.08-.198.397.33 0 00.08-.199.397.33 0 00-.397-.33z" style="marker:none"/><rect ry=".265" style="marker:none" width="3.175" height=".529" x="1.587" y="293.031"/><rect y="294.354" x="1.587" height=".529" width="3.175" style="marker:none" ry=".265"/><rect ry=".265" style="marker:none" width="3.175" height=".529" x="1.587" y="295.677"/><path d="M.397 292.767a.132.132 0 100 .264h.132v.53H.397a.132.132 0 100 .264h.529a.132.132 0 100-.265H.794v-.661a.132.132 0 00-.133-.132zM.397 294.09a.132.132 0 100 .264H.66a.09.09 0 01.02.002.133.133 0 01.109.098v.003a.134.134 0 01.003.047v.004a.132.132 0 01-.016.044v.002l-.002.002a.133.133 0 01-.033.037H.74l-.3.225-.124.093-.006.007a.125.125 0 00-.018.02.116.116 0 00-.013.02c-.004.006-.006.015-.008.023a.124.124 0 00-.006.028l-.001.008.002.014c.001.01.003.019.006.028a.143.143 0 00.011.023l.007.015.007.006a.128.128 0 00.02.018.095.095 0 00.042.02c.01.004.02.006.03.007l.007.002h.529a.132.132 0 100-.265H.794l.106-.079c.003-.002.004-.006.007-.009a.395.395 0 00-.246-.706z" style="marker:none"/></g></svg>