<svg xmlns="http://www.w3.org/2000/svg" height="18" width="18"><path d="M1.5 7a.5.5 0 100 1h1a.5.5 0 01.5.5c0 .164-.08.31-.14.355l-1.655 1.25A.492.492 0 001 10.5a.5.5 0 00.5.5h2a.5.5 0 000-1H3l.398-.299A1.5 1.5 0 002.5 7z"/><path d="M1.5 12c-.667 0-.667 1 0 1h1.25c.333 0 .333.5 0 .5H2.5c-.667 0-.667 1 0 1h.25c.333 0 .333.5 0 .5H1.5c-.667 0-.667 1 0 1h1c.398 0 .78-.131 1.06-.365.282-.235.44-.554.44-.885a1.121 1.121 0 00-.303-.75c.191-.204.3-.47.303-.75 0-.332-.158-.651-.44-.885-.3-.241-.675-.37-1.06-.365z"/><rect y="13" x="6" height="2" width="12" ry="1"/><rect ry="1" width="12" height="2" x="6" y="8"/><rect y="3" x="6" height="2" width="12" ry="1"/><path d="M1.5 2a.5.5 0 100 1H2v2h-.5a.5.5 0 100 1h2a.5.5 0 100-1H3V2.5c0-.277-.223-.5-.5-.5z"/></svg>