<svg height="18" width="18"><path d="M 7.2695308,2.7050781 C 8.1128755,2.7081581 8.9529895,2.8712156 9.730469,3.1347656 11.408874,3.7037121 12.90142,4.6847104 14,5.6367188 V 4 h 2 V 9 H 11 V 7 h 1.509765 C 11.59075,6.2485173 10.340208,5.453808 9.0878904,5.0292969 7.4309398,4.4676231 5.9453458,4.468717 4.7070308,5.7070312 c -1.225014,1.2250142 -1.409769,2.7206953 -0.779297,4.2968748 0.630472,1.57618 2.167475,3.158006 4.4433598,4.06836 l -0.7421878,1.855468 c -2.724115,-1.089646 -4.687112,-3.00782 -5.55664,-5.18164 -0.869528,-2.1738206 -0.554283,-4.6781393 1.220703,-6.4531252 0.923857,-0.9238568 2.015388,-1.388828 3.134765,-1.5351563 0.279845,-0.036582 0.560682,-0.053761 0.841797,-0.052734 z" /></svg>