<svg xmlns="http://www.w3.org/2000/svg" viewBox="0 0 4.762 4.762" height="18" width="18"><g transform="translate(0 -292.238)"><path d="M2.646 292.767c-1.059 0-1.588.529-1.588 1.058 0 .09.021.178.051.265h.62c-.111-.099-.144-.188-.144-.266 0-.088.034-.19.185-.304.152-.114.434-.225.875-.225h.795a.265.265 0 100-.528zm.39 2.379c.11.097.141.186.141.264 0 .088-.035.19-.188.305-.152.114-.431.225-.872.227l-.266.002v-.002h-.528a.265.265 0 100 .529l.793-.002c1.058-.003 1.588-.53 1.588-1.059 0-.089-.021-.177-.052-.264z"/><rect ry=".265" y="294.354" x=".265" height=".529" width="4.233" style="marker:none"/></g></svg>