<svg
   height="18"
   width="18"
>
   <path
      d="M 2.3339844,1 C 1.6039663,1 1,1.6039663 1,2.3339844 V 5.6660156 C 1,6.3960337 1.6039663,7 2.3339844,7 H 5.6660156 C 6.3960337,7 7,6.3960337 7,5.6660156 V 2.3339844 C 7,1.6039663 6.3960337,1 5.6660156,1 Z m 0,1 H 5.6660156 C 5.8593309,2 6,2.1406691 6,2.3339844 V 5.6660156 C 6,5.8593309 5.8593309,6 5.6660156,6 H 2.3339844 C 2.1406691,6 2,5.8593309 2,5.6660156 V 2.3339844 C 2,2.1406691 2.1406691,2 2.3339844,2 Z"
   />
   <path
      d="M 2.3339844,11 C 1.6039663,11 1,11.603966 1,12.333984 v 3.332032 C 1,16.396034 1.6039663,17 2.3339844,17 H 5.6660156 C 6.3960337,17 7,16.396034 7,15.666016 V 12.333984 C 7,11.603966 6.3960337,11 5.6660156,11 Z m 0,1 H 5.6660156 C 5.8593309,12 6,12.140669 6,12.333984 v 3.332032 C 6,15.859331 5.8593309,16 5.6660156,16 H 2.3339844 C 2.1406691,16 2,15.859331 2,15.666016 V 12.333984 C 2,12.140669 2.1406691,12 2.3339844,12 Z"
   />
   <path
      d="m 10,3 h 7 c 0.554,0 1,0.446 1,1 0,0.554 -0.446,1 -1,1 H 10 C 9.446,5 9,4.554 9,4 9,3.446 9.446,3 10,3 Z" />
   <path
      d="m 10,13 h 7 c 0.554,0 1,0.446 1,1 0,0.554 -0.446,1 -1,1 H 10 C 9.446,15 9,14.554 9,14 9,13.446 9.446,13 10,13 Z" />
   <path
      d="M 4.8417969,2.5253906 A 0.5,0.5 0 0 0 4.5527344,2.7773438 L 3.8632813,4.15625 3.3535156,3.6464844 a 0.5,0.5 0 0 0 -0.7070312,0 0.5,0.5 0 0 0 0,0.7070312 l 1,1 A 0.50005,0.50005 0 0 0 4.4472656,5.2226562 l 1,-1.9999999 A 0.5,0.5 0 0 0 5.2226562,2.5527344 0.5,0.5 0 0 0 4.8417969,2.5253906 Z"
   />
</svg>