<svg height="18" width="18"><path d="M 10.730469 2.7050781 C 9.8871243 2.7081594 9.0470103 2.8712156 8.2695312 3.1347656 C 6.5911256 3.7037121 5.0985797 4.6847104 4 5.6367188 L 4 4 L 2 4 L 2 9 L 7 9 L 7 7 L 5.4902344 7 C 6.4092499 6.2485173 7.6597914 5.453808 8.9121094 5.0292969 C 10.56906 4.4676231 12.054654 4.468717 13.292969 5.7070312 C 14.517983 6.9320454 14.702738 8.4277265 14.072266 10.003906 C 13.441794 11.580086 11.904791 13.161912 9.6289062 14.072266 L 10.371094 15.927734 C 13.095209 14.838088 15.058206 12.919914 15.927734 10.746094 C 16.797262 8.5722734 16.482017 6.0679547 14.707031 4.2929688 C 13.783174 3.369112 12.691643 2.9041408 11.572266 2.7578125 C 11.292421 2.7212304 11.011584 2.704051 10.730469 2.7050781 z " /></svg>
